<svg width="497" height="99" viewBox="0 0 497 99" fill="none" xmlns="http://www.w3.org/2000/svg">
<path d="M94.8307 99C90.0519 99 85.7171 98.1941 81.8265 96.5823C77.978 94.928 74.6583 92.6163 71.8671 89.6472C69.1182 86.678 67.0037 83.1575 65.5236 79.0855C64.0434 75.0135 63.3033 70.5598 63.3033 65.7243V63.0521C63.3033 57.4531 64.128 52.4692 65.7773 48.1003C67.4266 43.6889 69.668 39.9563 72.5015 36.9023C75.3349 33.8483 78.549 31.5366 82.1436 29.9672C85.7383 28.3978 89.4598 27.6131 93.3082 27.6131C98.2139 27.6131 102.443 28.4614 105.995 30.1581C109.59 31.8548 112.529 34.2301 114.813 37.2841C117.096 40.2956 118.788 43.8586 119.888 47.973C120.987 52.045 121.537 56.4987 121.537 61.3342V66.615H70.2812V57.0077H109.801V56.117C109.632 53.063 108.998 50.0938 107.898 47.2095C106.841 44.3252 105.149 41.9499 102.824 40.0835C100.498 38.2172 97.3258 37.2841 93.3082 37.2841C90.644 37.2841 88.1911 37.8567 85.9497 39.0019C83.7084 40.1048 81.7842 41.759 80.1771 43.9647C78.5701 46.1703 77.3225 48.8638 76.4345 52.045C75.5464 55.2262 75.1023 58.8952 75.1023 63.0521V65.7243C75.1023 68.9904 75.5464 72.0656 76.4345 74.9499C77.3648 77.7918 78.697 80.2943 80.4309 82.4576C82.2071 84.6208 84.3427 86.3175 86.8378 87.5476C89.3753 88.7776 92.251 89.3927 95.465 89.3927C99.6095 89.3927 103.12 88.5443 105.995 86.8477C108.871 85.151 111.387 82.8818 113.544 80.0398L120.649 85.7024C119.169 87.9505 117.287 90.0925 115.003 92.1285C112.719 94.1645 109.907 95.8188 106.566 97.0913C103.268 98.3638 99.3557 99 94.8307 99Z" fill="#000044"/>
<path d="M141.128 39.7018V97.7275H129.393V28.8856H140.811L141.128 39.7018ZM162.569 28.5039L162.506 39.4473C161.533 39.2352 160.603 39.108 159.715 39.0656C158.869 38.9807 157.896 38.9383 156.797 38.9383C154.09 38.9383 151.701 39.3625 149.629 40.2108C147.556 41.0591 145.801 42.2468 144.364 43.7738C142.926 45.3008 141.784 47.1247 140.938 49.2455C140.134 51.3239 139.606 53.6144 139.352 56.117L136.053 58.0257C136.053 53.8689 136.455 49.9666 137.259 46.3188C138.105 42.671 139.394 39.4473 141.128 36.6478C142.862 33.8059 145.061 31.6003 147.726 30.0308C150.432 28.419 153.646 27.6131 157.368 27.6131C158.214 27.6131 159.186 27.7192 160.286 27.9312C161.385 28.1009 162.147 28.2918 162.569 28.5039Z" fill="#000044"/>
<path d="M209.565 84.3663V0H221.364V97.7275H210.58L209.565 84.3663ZM163.384 64.0701V62.7339C163.384 57.4743 164.018 52.7024 165.287 48.4184C166.598 44.0919 168.438 40.3805 170.806 37.2841C173.216 34.1877 176.071 31.8123 179.37 30.1581C182.711 28.4614 186.432 27.6131 190.534 27.6131C194.848 27.6131 198.612 28.3766 201.826 29.9036C205.082 31.3882 207.831 33.5726 210.072 36.4569C212.356 39.2988 214.153 42.7346 215.464 46.7641C216.775 50.7937 217.685 55.3535 218.192 60.4434V66.2969C217.727 71.3445 216.818 75.883 215.464 79.9126C214.153 83.9422 212.356 87.3779 210.072 90.2198C207.831 93.0617 205.082 95.2461 201.826 96.7731C198.569 98.2577 194.763 99 190.407 99C186.39 99 182.711 98.1305 179.37 96.3914C176.071 94.6523 173.216 92.2134 170.806 89.0746C168.438 85.9357 166.598 82.2455 165.287 78.0039C164.018 73.7198 163.384 69.0752 163.384 64.0701ZM175.183 62.7339V64.0701C175.183 67.5058 175.521 70.7294 176.198 73.741C176.917 76.7526 178.016 79.4036 179.497 81.6941C180.977 83.9846 182.859 85.7873 185.142 87.1022C187.426 88.3747 190.154 89.0109 193.325 89.0109C197.216 89.0109 200.409 88.1838 202.904 86.5296C205.442 84.8753 207.471 82.6909 208.994 79.9762C210.516 77.2616 211.7 74.3136 212.546 71.1324V55.7988C212.039 53.4659 211.299 51.2179 210.326 49.0546C209.396 46.849 208.169 44.8978 206.647 43.2012C205.167 41.4621 203.327 40.0835 201.128 39.0656C198.971 38.0476 196.413 37.5386 193.452 37.5386C190.238 37.5386 187.468 38.2172 185.142 39.5746C182.859 40.8895 180.977 42.7134 179.497 45.0463C178.016 47.3368 176.917 50.009 176.198 53.063C175.521 56.0746 175.183 59.2982 175.183 62.7339Z" fill="#000044"/>
<path d="M262.269 99C257.491 99 253.156 98.1941 249.265 96.5823C245.417 94.928 242.097 92.6163 239.306 89.6472C236.557 86.678 234.442 83.1575 232.962 79.0855C231.482 75.0135 230.742 70.5598 230.742 65.7243V63.0521C230.742 57.4531 231.567 52.4692 233.216 48.1003C234.865 43.6889 237.107 39.9563 239.94 36.9023C242.774 33.8483 245.988 31.5366 249.582 29.9672C253.177 28.3978 256.899 27.6131 260.747 27.6131C265.653 27.6131 269.882 28.4614 273.434 30.1581C277.029 31.8548 279.968 34.2301 282.252 37.2841C284.535 40.2956 286.227 43.8586 287.326 47.973C288.426 52.045 288.976 56.4987 288.976 61.3342V66.615H237.72V57.0077H277.24V56.117C277.071 53.063 276.437 50.0938 275.337 47.2095C274.28 44.3252 272.588 41.9499 270.262 40.0835C267.936 38.2172 264.765 37.2841 260.747 37.2841C258.083 37.2841 255.63 37.8567 253.388 39.0019C251.147 40.1048 249.223 41.759 247.616 43.9647C246.009 46.1703 244.761 48.8638 243.873 52.045C242.985 55.2262 242.541 58.8952 242.541 63.0521V65.7243C242.541 68.9904 242.985 72.0656 243.873 74.9499C244.804 77.7918 246.136 80.2943 247.87 82.4576C249.646 84.6208 251.781 86.3175 254.277 87.5476C256.814 88.7776 259.69 89.3927 262.904 89.3927C267.048 89.3927 270.558 88.5443 273.434 86.8477C276.31 85.151 278.826 82.8818 280.983 80.0398L288.088 85.7024C286.607 87.9505 284.726 90.0925 282.442 92.1285C280.158 94.1645 277.346 95.8188 274.005 97.0913C270.706 98.3638 266.794 99 262.269 99Z" fill="#000044"/>
<path d="M308.567 43.5829V97.7275H296.832V28.8856H307.933L308.567 43.5829ZM305.776 60.6979L300.891 60.5071C300.934 55.7988 301.631 51.4512 302.985 47.464C304.338 43.4344 306.241 39.9351 308.694 36.9659C311.147 33.9968 314.065 31.7063 317.448 30.0945C320.873 28.4402 324.658 27.6131 328.803 27.6131C332.186 27.6131 335.231 28.0797 337.938 29.0129C340.644 29.9036 342.949 31.3458 344.852 33.3393C346.797 35.3329 348.278 37.9203 349.292 41.1015C350.307 44.2404 350.815 48.0791 350.815 52.6176V97.7275H339.016V52.4904C339.016 48.885 338.487 46.0006 337.43 43.8374C336.373 41.6317 334.829 40.0411 332.799 39.0656C330.769 38.0476 328.274 37.5386 325.314 37.5386C322.396 37.5386 319.732 38.1536 317.321 39.3837C314.953 40.6138 312.902 42.3104 311.168 44.4737C309.476 46.6369 308.144 49.1183 307.171 51.9177C306.241 54.6748 305.776 57.6015 305.776 60.6979Z" fill="#000044"/>
<path d="M391.53 28.8856V37.9203H354.421V28.8856H391.53ZM366.981 12.1523H378.716V80.6761C378.716 83.009 379.076 84.7693 379.795 85.9569C380.514 87.1446 381.444 87.9293 382.586 88.3111C383.728 88.6928 384.954 88.8837 386.265 88.8837C387.238 88.8837 388.253 88.7988 389.31 88.6292C390.41 88.4171 391.234 88.2474 391.784 88.1202L391.847 97.7275C390.917 98.0244 389.691 98.3001 388.168 98.5546C386.688 98.8515 384.891 99 382.776 99C379.9 99 377.257 98.4274 374.847 97.2821C372.436 96.1369 370.512 94.2282 369.074 91.5559C367.679 88.8413 366.981 85.1934 366.981 80.6125V12.1523Z" fill="#000044"/>
<path d="M411.185 39.7018V97.7275H399.45V28.8856H410.868L411.185 39.7018ZM432.626 28.5039L432.563 39.4473C431.59 39.2352 430.66 39.108 429.772 39.0656C428.926 38.9807 427.953 38.9383 426.854 38.9383C424.147 38.9383 421.758 39.3625 419.685 40.2108C417.613 41.0591 415.858 42.2468 414.42 43.7738C412.982 45.3008 411.841 47.1247 410.995 49.2455C410.191 51.3239 409.663 53.6144 409.409 56.117L406.11 58.0257C406.11 53.8689 406.512 49.9666 407.315 46.3188C408.161 42.671 409.451 39.4473 411.185 36.6478C412.919 33.8059 415.118 31.6003 417.782 30.0308C420.489 28.419 423.703 27.6131 427.424 27.6131C428.27 27.6131 429.243 27.7192 430.342 27.9312C431.442 28.1009 432.203 28.2918 432.626 28.5039Z" fill="#000044"/>
<path d="M475.562 85.9569V50.518C475.562 47.8033 475.012 45.4492 473.912 43.4557C472.855 41.4197 471.248 39.8503 469.091 38.7474C466.935 37.6446 464.27 37.0932 461.098 37.0932C458.138 37.0932 455.537 37.6022 453.296 38.6202C451.097 39.6382 449.363 40.9743 448.094 42.6285C446.868 44.2828 446.255 46.0643 446.255 47.973H434.519C434.519 45.5129 435.153 43.0739 436.422 40.6562C437.691 38.2384 439.509 36.054 441.878 34.1028C444.288 32.1093 447.164 30.5398 450.505 29.3946C453.888 28.2069 457.652 27.6131 461.796 27.6131C466.787 27.6131 471.185 28.4614 474.991 30.1581C478.839 31.8548 481.842 34.421 483.999 37.8567C486.198 41.25 487.297 45.5129 487.297 50.6452V82.7121C487.297 85.0026 487.488 87.4415 487.868 90.0289C488.291 92.6163 488.904 94.8432 489.708 96.7095V97.7275H477.465C476.873 96.3702 476.408 94.5675 476.069 92.3194C475.731 90.0289 475.562 87.9081 475.562 85.9569ZM477.592 55.9897L477.719 64.2609H465.856C462.515 64.2609 459.534 64.5366 456.912 65.088C454.29 65.597 452.091 66.3818 450.314 67.4422C448.538 68.5026 447.185 69.8387 446.255 71.4505C445.324 73.0199 444.859 74.865 444.859 76.9859C444.859 79.1491 445.345 81.1215 446.318 82.903C447.291 84.6845 448.75 86.1054 450.695 87.1658C452.683 88.1838 455.114 88.6928 457.99 88.6928C461.585 88.6928 464.757 87.9293 467.505 86.4023C470.254 84.8753 472.432 83.009 474.039 80.8033C475.689 78.5977 476.577 76.4557 476.704 74.3773L481.715 80.0398C481.419 81.8213 480.615 83.7937 479.304 85.9569C477.993 88.1202 476.238 90.1986 474.039 92.1922C471.882 94.1433 469.303 95.7764 466.3 97.0913C463.34 98.3638 459.999 99 456.277 99C451.625 99 447.544 98.088 444.034 96.2641C440.567 94.4402 437.86 92.0013 435.915 88.9473C434.012 85.8509 433.06 82.394 433.06 78.5765C433.06 74.8862 433.779 71.6414 435.217 68.8419C436.655 66 438.727 63.6459 441.434 61.7796C444.14 59.8708 447.396 58.4287 451.203 57.4531C455.009 56.4775 459.259 55.9897 463.953 55.9897H477.592Z" fill="#000044"/>
<path d="M497 12.8785C497 18.7361 492.266 23.4846 486.425 23.4846C480.585 23.4846 475.851 18.7361 475.851 12.8785C475.851 7.02091 480.585 2.2724 486.425 2.2724C492.266 2.2724 497 7.02091 497 12.8785Z" fill="#70AD47"/>
<path d="M17.7703 28.0305L31.8225 76.9441L34.1293 84.9735L34.7067 97.7277H23.8648L0 28.0305H17.7703Z" fill="#000044"/>
<path d="M34.1293 84.9735L34.7067 97.7277H39.6464L31.8225 76.9441L34.1293 84.9735Z" fill="#000044"/>
<path d="M63.4471 28.0305H45.7409L31.8225 76.9441L39.6464 97.7277L63.4471 28.0305Z" fill="#70AD47"/>
</svg>
